<svg xmlns="http://www.w3.org/2000/svg" width="1500" height="500" viewBox="0 0 1500 500"><g transform="translate(-4186 -10731)"><rect width="1500" height="500" rx="12" transform="translate(4186 10731)"/><g transform="translate(3979 10518)"><rect width="138" height="52" rx="15" transform="translate(888 554)" fill="#767676"/><path d="M2.04,0A.463.463,0,0,1,1.7-.14a.463.463,0,0,1-.14-.34V-13.52a.463.463,0,0,1,.14-.34A.463.463,0,0,1,2.04-14H3.9a.463.463,0,0,1,.34.14.463.463,0,0,1,.14.34V-2.38h6.34a.487.487,0,0,1,.36.14.487.487,0,0,1,.14.36v1.4a.463.463,0,0,1-.14.34.487.487,0,0,1-.36.14ZM17.36.2a5.842,5.842,0,0,1-2.69-.56,3.882,3.882,0,0,1-1.66-1.58,5.475,5.475,0,0,1-.65-2.38q-.02-.36-.02-.88t.02-.88a5.277,5.277,0,0,1,.67-2.39,4.028,4.028,0,0,1,1.68-1.57,5.745,5.745,0,0,1,2.65-.56,5.745,5.745,0,0,1,2.65.56,4.028,4.028,0,0,1,1.68,1.57,5.277,5.277,0,0,1,.67,2.39q.02.36.02.88t-.02.88a5.475,5.475,0,0,1-.65,2.38A3.882,3.882,0,0,1,20.05-.36,5.842,5.842,0,0,1,17.36.2Zm0-1.98A2.052,2.052,0,0,0,19-2.45a3.166,3.166,0,0,0,.64-1.97q.02-.3.02-.78t-.02-.78A3.179,3.179,0,0,0,19-7.94a2.038,2.038,0,0,0-1.64-.68,2.038,2.038,0,0,0-1.64.68,3.179,3.179,0,0,0-.64,1.96q-.02.3-.02.78t.02.78a3.166,3.166,0,0,0,.64,1.97A2.052,2.052,0,0,0,17.36-1.78ZM27.62.2a4.229,4.229,0,0,1-1.88-.41,3.447,3.447,0,0,1-1.33-1.1,2.613,2.613,0,0,1-.49-1.55,2.627,2.627,0,0,1,1.13-2.23A6.666,6.666,0,0,1,28.04-6.2l2.74-.4v-.42a1.859,1.859,0,0,0-.42-1.3,1.884,1.884,0,0,0-1.44-.46,2.128,2.128,0,0,0-1.17.29,1.784,1.784,0,0,0-.67.77.51.51,0,0,1-.46.26H25.04a.426.426,0,0,1-.33-.12.455.455,0,0,1-.11-.32,2.046,2.046,0,0,1,.26-.78,2.962,2.962,0,0,1,.76-.89,4.531,4.531,0,0,1,1.34-.73,5.783,5.783,0,0,1,1.98-.3,6.389,6.389,0,0,1,2.13.31,3.675,3.675,0,0,1,1.39.83,3.145,3.145,0,0,1,.76,1.22,4.532,4.532,0,0,1,.24,1.48V-.48a.463.463,0,0,1-.14.34.463.463,0,0,1-.34.14H31.36a.455.455,0,0,1-.35-.14.482.482,0,0,1-.13-.34v-.78a3.058,3.058,0,0,1-.7.71,3.742,3.742,0,0,1-1.07.54A4.726,4.726,0,0,1,27.62.2Zm.68-1.9A2.684,2.684,0,0,0,29.57-2a2.132,2.132,0,0,0,.9-.93,3.408,3.408,0,0,0,.33-1.59v-.42l-2,.32a4.3,4.3,0,0,0-1.76.58,1.168,1.168,0,0,0-.58.98,1.1,1.1,0,0,0,.27.75,1.616,1.616,0,0,0,.69.46A2.6,2.6,0,0,0,28.3-1.7ZM39.88.2a4.481,4.481,0,0,1-1.83-.35,3.469,3.469,0,0,1-1.31-.99,4.6,4.6,0,0,1-.8-1.51,7.107,7.107,0,0,1-.32-1.91q-.02-.36-.02-.65t.02-.65a7.141,7.141,0,0,1,.31-1.86,4.49,4.49,0,0,1,.8-1.51,3.605,3.605,0,0,1,1.32-1.01,4.373,4.373,0,0,1,1.83-.36,4.107,4.107,0,0,1,1.83.37,3.908,3.908,0,0,1,1.25.95v-4.44a.482.482,0,0,1,.13-.34.455.455,0,0,1,.35-.14h1.7a.463.463,0,0,1,.34.14.463.463,0,0,1,.14.34V-.48a.463.463,0,0,1-.14.34.463.463,0,0,1-.34.14H43.56a.455.455,0,0,1-.35-.14.482.482,0,0,1-.13-.34v-.74A3.936,3.936,0,0,1,41.81-.2,4.161,4.161,0,0,1,39.88.2Zm.74-2.14a2.161,2.161,0,0,0,1.34-.38,2.269,2.269,0,0,0,.74-.97,3.487,3.487,0,0,0,.26-1.21q.02-.36.02-.77t-.02-.77a2.889,2.889,0,0,0-.28-1.15,2.335,2.335,0,0,0-.76-.91,2.174,2.174,0,0,0-1.3-.36,2.158,2.158,0,0,0-1.33.37,2.087,2.087,0,0,0-.71.97,4.55,4.55,0,0,0-.26,1.32q-.02.6,0,1.2a4.55,4.55,0,0,0,.26,1.32,2.087,2.087,0,0,0,.71.97A2.158,2.158,0,0,0,40.62-1.94ZM48.76,0a.463.463,0,0,1-.34-.14.463.463,0,0,1-.14-.34V-9.92a.463.463,0,0,1,.14-.34.463.463,0,0,1,.34-.14h1.66a.455.455,0,0,1,.35.14.482.482,0,0,1,.13.34V-.48a.482.482,0,0,1-.13.34.455.455,0,0,1-.35.14Zm-.08-12.12a.473.473,0,0,1-.35-.13.473.473,0,0,1-.13-.35v-1.44a.482.482,0,0,1,.13-.34.455.455,0,0,1,.35-.14H50.5a.487.487,0,0,1,.36.14.463.463,0,0,1,.14.34v1.44a.455.455,0,0,1-.14.35.508.508,0,0,1-.36.13ZM54.04,0a.463.463,0,0,1-.34-.14.463.463,0,0,1-.14-.34V-9.92a.463.463,0,0,1,.14-.34.463.463,0,0,1,.34-.14h1.64a.463.463,0,0,1,.34.14.463.463,0,0,1,.14.34v.82a4.258,4.258,0,0,1,1.33-1.07,4.25,4.25,0,0,1,2.01-.43,3.985,3.985,0,0,1,2.12.55A3.653,3.653,0,0,1,63.01-8.5a5.407,5.407,0,0,1,.49,2.4V-.48a.463.463,0,0,1-.14.34.463.463,0,0,1-.34.14H61.26a.463.463,0,0,1-.34-.14.463.463,0,0,1-.14-.34v-5.5a2.694,2.694,0,0,0-.57-1.82,2.061,2.061,0,0,0-1.65-.66,2.169,2.169,0,0,0-1.66.66,2.553,2.553,0,0,0-.62,1.82v5.5a.463.463,0,0,1-.14.34A.463.463,0,0,1,55.8,0Zm16.7,4.4a6.467,6.467,0,0,1-2.4-.38,4.4,4.4,0,0,1-1.48-.92,3.548,3.548,0,0,1-.77-1.07,2.733,2.733,0,0,1-.25-.83.416.416,0,0,1,.13-.35A.48.48,0,0,1,66.32.7h1.74a.521.521,0,0,1,.32.09.667.667,0,0,1,.2.33,4.185,4.185,0,0,0,.32.56,1.571,1.571,0,0,0,.61.51,2.51,2.51,0,0,0,1.13.21,3.289,3.289,0,0,0,1.28-.22,1.551,1.551,0,0,0,.79-.74A3.165,3.165,0,0,0,72.98,0V-1.36a3.577,3.577,0,0,1-1.23.94,4.257,4.257,0,0,1-1.85.36,4.518,4.518,0,0,1-1.86-.35,3.534,3.534,0,0,1-1.3-.98,4.366,4.366,0,0,1-.79-1.49,7.261,7.261,0,0,1-.31-1.9q-.02-.54,0-1.08a7.435,7.435,0,0,1,.3-1.86,4.355,4.355,0,0,1,.79-1.51,3.626,3.626,0,0,1,1.31-1.01,4.408,4.408,0,0,1,1.86-.36,3.931,3.931,0,0,1,1.92.43A4.125,4.125,0,0,1,73.1-9.1v-.8a.487.487,0,0,1,.14-.36.463.463,0,0,1,.34-.14H75.2a.463.463,0,0,1,.34.14.487.487,0,0,1,.14.36L75.7-.26a5.318,5.318,0,0,1-.54,2.48,3.73,3.73,0,0,1-1.63,1.61A6,6,0,0,1,70.74,4.4Zm-.1-6.58a2.21,2.21,0,0,0,1.32-.36,2.145,2.145,0,0,0,.74-.94,3.716,3.716,0,0,0,.28-1.18q.02-.26.02-.66t-.02-.64a3.651,3.651,0,0,0-.28-1.19,2.223,2.223,0,0,0-.74-.94,2.167,2.167,0,0,0-1.32-.37,2.167,2.167,0,0,0-1.32.37,2,2,0,0,0-.71.97,4.785,4.785,0,0,0-.25,1.32,6.012,6.012,0,0,0,0,.98,4.858,4.858,0,0,0,.25,1.31,1.94,1.94,0,0,0,.71.97A2.21,2.21,0,0,0,70.64-2.18ZM78.72,0a.463.463,0,0,1-.34-.14.463.463,0,0,1-.14-.34V-2.46a.487.487,0,0,1,.14-.36.463.463,0,0,1,.34-.14h2a.463.463,0,0,1,.34.14.487.487,0,0,1,.14.36V-.48a.463.463,0,0,1-.14.34.463.463,0,0,1-.34.14Zm5.36,0a.463.463,0,0,1-.34-.14.463.463,0,0,1-.14-.34V-2.46a.487.487,0,0,1,.14-.36.463.463,0,0,1,.34-.14h2a.463.463,0,0,1,.34.14.487.487,0,0,1,.14.36V-.48a.463.463,0,0,1-.14.34.463.463,0,0,1-.34.14Zm5.36,0a.463.463,0,0,1-.34-.14.463.463,0,0,1-.14-.34V-2.46a.487.487,0,0,1,.14-.36.463.463,0,0,1,.34-.14h2a.463.463,0,0,1,.34.14.487.487,0,0,1,.14.36V-.48a.463.463,0,0,1-.14.34.463.463,0,0,1-.34.14Z" transform="translate(911 587)"/></g><g transform="translate(4057 10383)"><rect width="77" height="77" rx="16" transform="translate(695 548)" fill="#131313"/><path d="M12.192.48A14,14,0,0,1,7.584-.192a10.546,10.546,0,0,1-3.12-1.632,7.919,7.919,0,0,1-1.8-1.92A3.8,3.8,0,0,1,2.016-5.28.854.854,0,0,1,2.352-6.1a1.277,1.277,0,0,1,.768-.288H5.232a1.182,1.182,0,0,1,.456.072,1.544,1.544,0,0,1,.456.408A18.715,18.715,0,0,0,7.536-4.56a6.231,6.231,0,0,0,1.9,1.1,7.908,7.908,0,0,0,2.808.432,7.833,7.833,0,0,0,4.032-.936,3.015,3.015,0,0,0,1.584-2.76,2.762,2.762,0,0,0-.648-1.92,5.588,5.588,0,0,0-2.3-1.3,40.648,40.648,0,0,0-4.536-1.2,16.647,16.647,0,0,1-4.56-1.656,6.063,6.063,0,0,1-2.4-2.352,6.546,6.546,0,0,1-.72-3.1,6.3,6.3,0,0,1,1.056-3.432,7.827,7.827,0,0,1,3.1-2.712,11.054,11.054,0,0,1,5.112-1.056,12.941,12.941,0,0,1,4.272.624,9.712,9.712,0,0,1,2.928,1.56,7.915,7.915,0,0,1,1.728,1.848,3.588,3.588,0,0,1,.624,1.536.9.9,0,0,1-.288.792,1.1,1.1,0,0,1-.768.312H18.432a.976.976,0,0,1-.552-.144,2.676,2.676,0,0,1-.408-.336A11.356,11.356,0,0,0,16.344-20.5a5.082,5.082,0,0,0-1.68-1.032,7.5,7.5,0,0,0-2.712-.408,5.49,5.49,0,0,0-3.6,1.008,3.182,3.182,0,0,0-1.2,2.544,2.69,2.69,0,0,0,.528,1.632,4.465,4.465,0,0,0,2.016,1.3,34.394,34.394,0,0,0,4.416,1.248,16.465,16.465,0,0,1,4.992,1.68A6.642,6.642,0,0,1,21.7-10.08a6.549,6.549,0,0,1,.768,3.216,6.305,6.305,0,0,1-1.176,3.7A7.9,7.9,0,0,1,17.832-.5,14.249,14.249,0,0,1,12.192.48Z" transform="translate(721 600)" fill="#fff"/></g><g transform="translate(4154 10383)"><rect width="77" height="77" rx="16" transform="translate(695 548)" fill="#131313"/><path d="M13.776.48A12.184,12.184,0,0,1,7.68-.912,9.365,9.365,0,0,1,3.936-4.776a13.3,13.3,0,0,1-1.44-5.64q-.048-.816-.048-2.088t.048-2.04A13.007,13.007,0,0,1,3.96-20.208a9.561,9.561,0,0,1,3.768-3.84,12.078,12.078,0,0,1,6.048-1.392,12.078,12.078,0,0,1,6.048,1.392,9.561,9.561,0,0,1,3.768,3.84,13.007,13.007,0,0,1,1.464,5.664q.048.768.048,2.04t-.048,2.088a13.3,13.3,0,0,1-1.44,5.64A9.365,9.365,0,0,1,19.872-.912,12.184,12.184,0,0,1,13.776.48Zm0-3.7a6.2,6.2,0,0,0,4.752-1.9,8.331,8.331,0,0,0,1.92-5.544q.048-.72.048-1.824T20.448-14.3a8.331,8.331,0,0,0-1.92-5.544,6.2,6.2,0,0,0-4.752-1.9A6.278,6.278,0,0,0,9-19.848,8.084,8.084,0,0,0,7.1-14.3q-.048.72-.048,1.824T7.1-10.656A8.084,8.084,0,0,0,9-5.112,6.278,6.278,0,0,0,13.776-3.216Z" transform="translate(720 600)" fill="#fff"/></g><g transform="translate(4251 10383)"><rect width="77" height="77" rx="16" transform="translate(695 548)" fill="#131313"/><path d="M13.776.48A12.184,12.184,0,0,1,7.68-.912,9.365,9.365,0,0,1,3.936-4.776a13.3,13.3,0,0,1-1.44-5.64q-.048-.816-.048-2.088t.048-2.04A13.007,13.007,0,0,1,3.96-20.208a9.561,9.561,0,0,1,3.768-3.84,12.078,12.078,0,0,1,6.048-1.392,12.078,12.078,0,0,1,6.048,1.392,9.561,9.561,0,0,1,3.768,3.84,13.007,13.007,0,0,1,1.464,5.664q.048.768.048,2.04t-.048,2.088a13.3,13.3,0,0,1-1.44,5.64A9.365,9.365,0,0,1,19.872-.912,12.184,12.184,0,0,1,13.776.48Zm0-3.7a6.2,6.2,0,0,0,4.752-1.9,8.331,8.331,0,0,0,1.92-5.544q.048-.72.048-1.824T20.448-14.3a8.331,8.331,0,0,0-1.92-5.544,6.2,6.2,0,0,0-4.752-1.9A6.278,6.278,0,0,0,9-19.848,8.084,8.084,0,0,0,7.1-14.3q-.048.72-.048,1.824T7.1-10.656A8.084,8.084,0,0,0,9-5.112,6.278,6.278,0,0,0,13.776-3.216Z" transform="translate(720 600)" fill="#fff"/></g><g transform="translate(4348 10383)"><rect width="77" height="77" rx="16" transform="translate(695 548)" fill="#131313"/><path d="M4.656,0a1.073,1.073,0,0,1-.792-.312A1.073,1.073,0,0,1,3.552-1.1V-23.856a1.073,1.073,0,0,1,.312-.792,1.073,1.073,0,0,1,.792-.312H6.912a1.073,1.073,0,0,1,.792.312,1.073,1.073,0,0,1,.312.792v2.112a9.793,9.793,0,0,1,3.144-2.664,10.139,10.139,0,0,1,4.872-1.032,9.8,9.8,0,0,1,5.3,1.368,8.541,8.541,0,0,1,3.288,3.792,13.488,13.488,0,0,1,1.1,5.64V-1.1a1.122,1.122,0,0,1-.288.792A1,1,0,0,1,24.672,0h-2.4a1.073,1.073,0,0,1-.792-.312,1.073,1.073,0,0,1-.312-.792V-14.4a7.8,7.8,0,0,0-1.632-5.256,5.986,5.986,0,0,0-4.8-1.9,6.278,6.278,0,0,0-4.776,1.9A7.326,7.326,0,0,0,8.16-14.4V-1.1a1.073,1.073,0,0,1-.312.792A1.073,1.073,0,0,1,7.056,0Z" transform="translate(720 600)" fill="#fff"/></g><path d="M4.944,0A1.17,1.17,0,0,1,4.08-.336a1.111,1.111,0,0,1-.336-.816V-32.4a1.17,1.17,0,0,1,.336-.864,1.17,1.17,0,0,1,.864-.336H8.736a1.314,1.314,0,0,1,1.008.36,2.771,2.771,0,0,1,.432.552l9.264,17.28,9.36-17.28a2.771,2.771,0,0,1,.432-.552,1.314,1.314,0,0,1,1.008-.36h3.744a1.17,1.17,0,0,1,.864.336,1.17,1.17,0,0,1,.336.864V-1.152a1.111,1.111,0,0,1-.336.816A1.17,1.17,0,0,1,33.984,0H29.952a1.091,1.091,0,0,1-.84-.336,1.156,1.156,0,0,1-.312-.816V-21.936L22.08-9.12a2.539,2.539,0,0,1-.624.744,1.549,1.549,0,0,1-1.008.312H18.48a1.53,1.53,0,0,1-1.032-.312,2.728,2.728,0,0,1-.6-.744l-6.72-12.816V-1.152a1.111,1.111,0,0,1-.336.816A1.111,1.111,0,0,1,8.976,0ZM46.608,9.12a.984.984,0,0,1-.96-.96,2.549,2.549,0,0,1,.024-.36,1.157,1.157,0,0,1,.168-.408l3.744-8.88L40.368-23.232a2.2,2.2,0,0,1-.192-.672,1.276,1.276,0,0,1,.336-.744.939.939,0,0,1,.72-.312H45.12a1.173,1.173,0,0,1,.864.288,1.993,1.993,0,0,1,.432.624L52.8-8.352l6.576-15.7a1.65,1.65,0,0,1,.432-.648,1.241,1.241,0,0,1,.864-.264h3.84a1,1,0,0,1,.7.288A.888.888,0,0,1,65.52-24a2.213,2.213,0,0,1-.192.768L51.744,8.208a2.206,2.206,0,0,1-.48.648,1.241,1.241,0,0,1-.864.264ZM71.376,0a1.111,1.111,0,0,1-.816-.336,1.111,1.111,0,0,1-.336-.816V-32.4a1.17,1.17,0,0,1,.336-.864,1.111,1.111,0,0,1,.816-.336H85.3a14.686,14.686,0,0,1,6.336,1.176,8,8,0,0,1,3.624,3.24,9.528,9.528,0,0,1,1.176,4.8,7.383,7.383,0,0,1-.648,3.192A7.165,7.165,0,0,1,94.2-18.96a8.819,8.819,0,0,1-1.848,1.344,8.48,8.48,0,0,1,3.312,2.88,8.041,8.041,0,0,1,1.44,4.8,10.124,10.124,0,0,1-1.3,5.136,8.857,8.857,0,0,1-3.84,3.528A13.976,13.976,0,0,1,85.68,0ZM76.9-5.088h8.016A5.173,5.173,0,0,0,88.848-6.5a4.8,4.8,0,0,0,1.344-3.432,4.8,4.8,0,0,0-1.368-3.5,5.24,5.24,0,0,0-3.912-1.392H76.9Zm0-14.736h7.536a5.309,5.309,0,0,0,3.816-1.224A4.23,4.23,0,0,0,89.52-24.24a3.983,3.983,0,0,0-1.272-3.144,5.6,5.6,0,0,0-3.816-1.128H76.9ZM103.728,0a1.111,1.111,0,0,1-.816-.336,1.111,1.111,0,0,1-.336-.816V-23.808a1.111,1.111,0,0,1,.336-.816,1.111,1.111,0,0,1,.816-.336h3.984a1.091,1.091,0,0,1,.84.336,1.156,1.156,0,0,1,.312.816V-1.152a1.156,1.156,0,0,1-.312.816,1.091,1.091,0,0,1-.84.336Zm-.192-29.088a1.135,1.135,0,0,1-.84-.312,1.135,1.135,0,0,1-.312-.84V-33.7a1.156,1.156,0,0,1,.312-.816,1.091,1.091,0,0,1,.84-.336H107.9a1.17,1.17,0,0,1,.864.336,1.111,1.111,0,0,1,.336.816v3.456a1.091,1.091,0,0,1-.336.84,1.219,1.219,0,0,1-.864.312ZM126.528,0a10.553,10.553,0,0,1-4.848-1.008,6.414,6.414,0,0,1-2.928-3,11.411,11.411,0,0,1-.96-4.968v-10.9H114a1.111,1.111,0,0,1-.816-.336,1.111,1.111,0,0,1-.336-.816v-2.784a1.111,1.111,0,0,1,.336-.816A1.111,1.111,0,0,1,114-24.96h3.792v-7.968a1.156,1.156,0,0,1,.312-.816,1.091,1.091,0,0,1,.84-.336h3.888a1.111,1.111,0,0,1,.816.336,1.111,1.111,0,0,1,.336.816v7.968h6a1.111,1.111,0,0,1,.816.336,1.111,1.111,0,0,1,.336.816v2.784a1.111,1.111,0,0,1-.336.816,1.111,1.111,0,0,1-.816.336h-6V-9.456a5.747,5.747,0,0,0,.7,3.072,2.638,2.638,0,0,0,2.424,1.1h3.312a1.111,1.111,0,0,1,.816.336,1.111,1.111,0,0,1,.336.816v2.976a1.111,1.111,0,0,1-.336.816,1.111,1.111,0,0,1-.816.336Zm22.944.48a16.768,16.768,0,0,1-7.512-1.536,11.209,11.209,0,0,1-4.8-4.44,14.522,14.522,0,0,1-1.848-6.936q-.048-2.064-.048-4.44t.048-4.488a13.992,13.992,0,0,1,1.848-6.816,11.289,11.289,0,0,1,4.848-4.368,16.841,16.841,0,0,1,7.464-1.536,18.37,18.37,0,0,1,6.144.936,14.159,14.159,0,0,1,4.392,2.4,10.6,10.6,0,0,1,2.64,3.144,7.267,7.267,0,0,1,.936,3.12.836.836,0,0,1-.24.72,1.038,1.038,0,0,1-.768.288h-4.944a1.137,1.137,0,0,1-.72-.192,1.694,1.694,0,0,1-.432-.576,7.105,7.105,0,0,0-1.2-1.992,6.458,6.458,0,0,0-2.208-1.656,8.307,8.307,0,0,0-3.6-.672,7.552,7.552,0,0,0-5.208,1.728q-1.944,1.728-2.088,5.712-.144,4.176,0,8.448.144,4.08,2.136,5.856a7.6,7.6,0,0,0,5.256,1.776,9.307,9.307,0,0,0,3.864-.768,5.917,5.917,0,0,0,2.688-2.4,7.988,7.988,0,0,0,.984-4.176v-1.488h-5.856a1.111,1.111,0,0,1-.816-.336,1.17,1.17,0,0,1-.336-.864v-2.544a1.17,1.17,0,0,1,.336-.864,1.111,1.111,0,0,1,.816-.336H162.72a1.091,1.091,0,0,1,.84.336,1.219,1.219,0,0,1,.312.864v5.04a13.3,13.3,0,0,1-1.752,6.96A11.6,11.6,0,0,1,157.128-1.1,17.256,17.256,0,0,1,149.472.48Z" transform="translate(4853 10856)" fill="#fff"/></g></svg>